<?xml version="1.0" standalone="no"?>
<!DOCTYPE svg PUBLIC "-//W3C//DTD SVG 20010904//EN"
 "http://www.w3.org/TR/2001/REC-SVG-20010904/DTD/svg10.dtd">
<svg version="1.0" xmlns="http://www.w3.org/2000/svg"
 width="200.000000pt" height="200.000000pt" viewBox="0 0 200.000000 200.000000"
 preserveAspectRatio="xMidYMid meet">
<metadata>
Created by potrace 1.16, written by Peter Selinger 2001-2019
</metadata>
<g transform="translate(0.000000,200.000000) scale(0.100000,-0.100000)"
fill="#000000" stroke="none">
<path d="M365 1513 c-44 -9 -76 -27 -87 -46 -9 -18 -6 -24 18 -44 16 -13 33
-27 38 -31 15 -12 73 -1 89 17 8 9 17 33 21 54 6 34 5 38 -19 47 -15 6 -29 9
-33 9 -4 -1 -16 -3 -27 -6z"/>
<path d="M141 1410 c-21 -29 -21 -50 0 -50 16 0 49 40 49 60 0 29 -23 24 -49
-10z"/>
<path d="M850 1305 c-7 -8 -23 -15 -36 -15 -30 0 -30 -14 -2 -68 20 -38 26
-42 50 -36 15 3 43 0 63 -7 28 -11 37 -11 47 0 11 10 10 14 -4 22 -10 6 -18
17 -18 24 0 8 -5 14 -12 13 -6 -2 -14 6 -16 17 -4 21 -40 65 -53 65 -3 0 -12
-7 -19 -15z m30 -95 c0 -5 -2 -10 -4 -10 -3 0 -8 5 -11 10 -3 6 -1 10 4 10 6
0 11 -4 11 -10z"/>
<path d="M1103 1140 c-22 -35 -16 -41 36 -34 30 4 56 2 70 -5 16 -9 28 -9 49
1 35 17 36 44 2 40 -13 -1 -31 0 -40 4 -8 4 -35 8 -60 10 -37 4 -47 1 -57 -16z"/>
<path d="M1291 1076 c-24 -29 12 -76 59 -76 13 0 20 -9 22 -26 4 -36 31 -53
58 -36 11 6 30 12 43 12 13 0 33 10 45 23 28 29 20 62 -15 65 -14 1 -32 11
-40 22 -14 19 -16 19 -42 4 -26 -15 -29 -15 -62 5 -40 25 -52 26 -68 7z"/>
<path d="M1184 1034 c11 -44 29 -58 55 -45 38 21 22 53 -33 67 -28 7 -29 6
-22 -22z"/>
<path d="M1313 933 c-27 -10 -13 -30 17 -25 17 2 29 9 27 16 -4 12 -26 17 -44
9z"/>
<path d="M1560 815 c-10 -12 -9 -20 4 -40 18 -27 21 -55 7 -55 -5 0 -12 -9
-16 -19 -3 -10 -15 -21 -25 -24 -25 -6 -26 -43 -4 -68 9 -10 16 -31 16 -46 0
-15 5 -34 10 -41 6 -7 8 -33 5 -59 -4 -39 -2 -49 17 -64 11 -10 27 -18 34 -19
7 0 15 -7 18 -15 10 -25 23 -17 40 24 12 30 25 43 66 62 28 13 56 24 62 24 6
1 24 6 39 13 16 7 30 12 32 12 1 0 18 14 36 31 32 30 33 32 14 45 -10 8 -22
14 -26 14 -4 0 -9 10 -11 23 -2 12 -13 26 -26 32 -12 5 -20 16 -17 22 6 16 -4
43 -16 43 -5 0 -28 12 -52 27 -53 35 -94 53 -118 53 -11 0 -19 4 -19 8 0 7
-42 32 -54 32 -2 0 -9 -7 -16 -15z"/>
</g>
</svg>
